<svg width="72" height="72" viewBox="0 0 72 72" fill="none" xmlns="http://www.w3.org/2000/svg">
<path d="M69.75 44.7063C59.0268 49.0421 47.5666 51.2641 36 51.25C24.0637 51.25 12.675 48.925 2.25 44.7063M51 17.5V10C51 8.01088 50.2098 6.10322 48.8033 4.6967C47.3968 3.29018 45.4891 2.5 43.5 2.5H28.5C26.5109 2.5 24.6032 3.29018 23.1967 4.6967C21.7902 6.10322 21 8.01088 21 10V17.5M36 40H36.0375M9.75 70H62.25C64.2391 70 66.1468 69.2098 67.5533 67.8033C68.9598 66.3968 69.75 64.4891 69.75 62.5V25C69.75 23.0109 68.9598 21.1032 67.5533 19.6967C66.1468 18.2902 64.2391 17.5 62.25 17.5H9.75C7.76088 17.5 5.85322 18.2902 4.4467 19.6967C3.04018 21.1032 2.25 23.0109 2.25 25V62.5C2.25 64.4891 3.04018 66.3968 4.4467 67.8033C5.85322 69.2098 7.76088 70 9.75 70Z" stroke="url(#paint0_linear_11_3)" stroke-width="4" stroke-linecap="round" stroke-linejoin="round"/>
<defs>
<linearGradient id="paint0_linear_11_3" x1="36" y1="2.5" x2="36" y2="70" gradientUnits="userSpaceOnUse">
<stop stop-color="#C853E6"/>
<stop offset="1" stop-color="#F15E3A"/>
</linearGradient>
</defs>
</svg>
